<svg xmlns="http://www.w3.org/2000/svg" viewBox="0 0 900 320">
  <defs>
    <linearGradient id="bg" x1="0%" y1="0%" x2="100%" y2="100%">
      <stop offset="0%" style="stop-color:#0f172a"/>
      <stop offset="50%" style="stop-color:#1e293b"/>
      <stop offset="100%" style="stop-color:#0f172a"/>
    </linearGradient>
    <linearGradient id="accent" x1="0%" y1="0%" x2="100%" y2="0%">
      <stop offset="0%" style="stop-color:#3b82f6"/>
      <stop offset="100%" style="stop-color:#8b5cf6"/>
    </linearGradient>
    <linearGradient id="accent2" x1="0%" y1="0%" x2="100%" y2="0%">
      <stop offset="0%" style="stop-color:#8b5cf6"/>
      <stop offset="100%" style="stop-color:#ec4899"/>
    </linearGradient>
  </defs>
  <rect width="900" height="320" fill="url(#bg)" rx="0"/>
  <g opacity="0.04" stroke="#94a3b8" stroke-width="0.5">
    <line x1="0" y1="40" x2="900" y2="40"/>
    <line x1="0" y1="80" x2="900" y2="80"/>
    <line x1="0" y1="120" x2="900" y2="120"/>
    <line x1="0" y1="160" x2="900" y2="160"/>
    <line x1="0" y1="200" x2="900" y2="200"/>
    <line x1="0" y1="240" x2="900" y2="240"/>
    <line x1="0" y1="280" x2="900" y2="280"/>
    <line x1="100" y1="0" x2="100" y2="320"/>
    <line x1="200" y1="0" x2="200" y2="320"/>
    <line x1="300" y1="0" x2="300" y2="320"/>
    <line x1="400" y1="0" x2="400" y2="320"/>
    <line x1="500" y1="0" x2="500" y2="320"/>
    <line x1="600" y1="0" x2="600" y2="320"/>
    <line x1="700" y1="0" x2="700" y2="320"/>
    <line x1="800" y1="0" x2="800" y2="320"/>
  </g>
  <circle cx="780" cy="70" r="120" fill="#3b82f6" opacity="0.05"/>
  <circle cx="120" cy="260" r="90" fill="#8b5cf6" opacity="0.05"/>
  <g transform="translate(70, 85)">
    <rect x="0" y="80" width="18" height="60" rx="3" fill="url(#accent)" opacity="0.6"/>
    <rect x="24" y="50" width="18" height="90" rx="3" fill="url(#accent)" opacity="0.8"/>
    <rect x="48" y="20" width="18" height="120" rx="3" fill="url(#accent)"/>
    <line x1="0" y1="142" x2="66" y2="142" stroke="#475569" stroke-width="1.5"/>
  </g>
  <text x="450" y="120" text-anchor="middle" fill="#f8fafc" font-family="system-ui, -apple-system, sans-serif" font-size="52" font-weight="700" letter-spacing="-1">VC / PE Toolkit</text>
  <rect x="350" y="140" width="200" height="3" rx="1.5" fill="url(#accent)"/>
  <text x="450" y="180" text-anchor="middle" fill="#94a3b8" font-family="system-ui, -apple-system, sans-serif" font-size="18" font-weight="400">Open-source AI skills for private equity &amp; venture capital</text>
  <g transform="translate(450, 220)">
    <rect x="-230" y="-14" width="95" height="28" rx="14" fill="#1e3a5f" stroke="#3b82f6" stroke-width="1" opacity="0.8"/>
    <text x="-182" y="5" text-anchor="middle" fill="#60a5fa" font-family="system-ui, sans-serif" font-size="12" font-weight="500">Sourcing</text>
    <rect x="-120" y="-14" width="115" height="28" rx="14" fill="#1e3a5f" stroke="#3b82f6" stroke-width="1" opacity="0.8"/>
    <text x="-62" y="5" text-anchor="middle" fill="#60a5fa" font-family="system-ui, sans-serif" font-size="12" font-weight="500">Due Diligence</text>
    <rect x="10" y="-14" width="100" height="28" rx="14" fill="#2d1f5e" stroke="#8b5cf6" stroke-width="1" opacity="0.8"/>
    <text x="60" y="5" text-anchor="middle" fill="#a78bfa" font-family="system-ui, sans-serif" font-size="12" font-weight="500">Execution</text>
    <rect x="125" y="-14" width="105" height="28" rx="14" fill="#2d1f5e" stroke="#8b5cf6" stroke-width="1" opacity="0.8"/>
    <text x="177" y="5" text-anchor="middle" fill="#a78bfa" font-family="system-ui, sans-serif" font-size="12" font-weight="500">Monitoring</text>
  </g>
  <text x="450" y="280" text-anchor="middle" fill="#64748b" font-family="system-ui, -apple-system, sans-serif" font-size="13" font-weight="400">Community-driven  ·  MIT Licensed  ·  Works with Claude, OpenAI, Gemini &amp; more</text>
</svg>
