<svg xmlns="http://www.w3.org/2000/svg" viewBox="0 0 820 280">
  <defs>
    <linearGradient id="bg" x1="0%" y1="0%" x2="100%" y2="100%">
      <stop offset="0%" style="stop-color:#0f172a"/>
      <stop offset="50%" style="stop-color:#1e293b"/>
      <stop offset="100%" style="stop-color:#0f172a"/>
    </linearGradient>
    <linearGradient id="accent" x1="0%" y1="0%" x2="100%" y2="0%">
      <stop offset="0%" style="stop-color:#3b82f6"/>
      <stop offset="100%" style="stop-color:#8b5cf6"/>
    </linearGradient>
    <pattern id="grid" width="40" height="40" patternUnits="userSpaceOnUse">
      <path d="M 40 0 L 0 0 0 40" fill="none" stroke="#1e3a5f" stroke-width="0.5" opacity="0.3"/>
    </pattern>
  </defs>
  <rect width="820" height="280" fill="url(#bg)" rx="12"/>
  <rect width="820" height="280" fill="url(#grid)" rx="12"/>
  <g transform="translate(60, 55)">
    <rect x="0" y="10" width="50" height="40" rx="4" fill="none" stroke="#3b82f6" stroke-width="1.5" opacity="0.6"/>
    <rect x="5" y="30" width="10" height="20" rx="2" fill="#3b82f6" opacity="0.7"/>
    <rect x="20" y="20" width="10" height="30" rx="2" fill="#8b5cf6" opacity="0.7"/>
    <rect x="35" y="15" width="10" height="35" rx="2" fill="#3b82f6" opacity="0.7"/>
  </g>
  <text x="130" y="95" font-family="system-ui, sans-serif" font-size="48" font-weight="800" fill="#f1f5f9" letter-spacing="-1">VC / PE Toolkit</text>
  <rect x="130" y="110" width="120" height="3" rx="1.5" fill="url(#accent)"/>
  <text x="130" y="142" font-family="system-ui, sans-serif" font-size="18" fill="#94a3b8" font-weight="400">The curated AI toolkit for private equity &amp; venture capital</text>
  <g transform="translate(130, 160)">
    <rect x="0" y="0" width="70" height="28" rx="14" fill="#3b82f6" opacity="0.15" stroke="#3b82f6" stroke-width="1"/>
    <text x="35" y="18" font-family="system-ui, sans-serif" font-size="12" fill="#60a5fa" text-anchor="middle" font-weight="500">Tools</text>
    <rect x="80" y="0" width="110" height="28" rx="14" fill="#8b5cf6" opacity="0.15" stroke="#8b5cf6" stroke-width="1"/>
    <text x="135" y="18" font-family="system-ui, sans-serif" font-size="12" fill="#a78bfa" text-anchor="middle" font-weight="500">MCP Servers</text>
    <rect x="200" y="0" width="70" height="28" rx="14" fill="#8b5cf6" opacity="0.15" stroke="#8b5cf6" stroke-width="1"/>
    <text x="235" y="18" font-family="system-ui, sans-serif" font-size="12" fill="#a78bfa" text-anchor="middle" font-weight="500">Skills</text>
    <rect x="280" y="0" width="100" height="28" rx="14" fill="#3b82f6" opacity="0.15" stroke="#3b82f6" stroke-width="1"/>
    <text x="330" y="18" font-family="system-ui, sans-serif" font-size="12" fill="#60a5fa" text-anchor="middle" font-weight="500">Playbooks</text>
  </g>
  <text x="410" y="240" font-family="system-ui, sans-serif" font-size="12" fill="#64748b" text-anchor="middle">Community-driven · MIT Licensed · Tools, MCP Servers, Skills &amp; Playbooks</text>
</svg>
